{"title":"Tora Tora Gold Vol.80 ~ Yuri Amami (Uncensored) DVDRip","uid":10825851,"size":736415173,"categoryP":"porn","categoryS":"movie_clips","magnet":"?xt=urn:btih:bbb2700db5f1ff4917b15c0ab1ccdf11aa3b17e8&amp;dn=Tora+Tora+Gold+Vol.80+%7E+Yuri+Amami+%28Uncensored%29+DVDRip&amp;tr=udp%3A%2F%2Ftracker.openbittorrent.com%3A80&amp;tr=udp%3A%2F%2Fopen.demonii.com%3A1337&amp;tr=udp%3A%2F%2Ftracker.coppersurfer.tk%3A6969&amp;tr=udp%3A%2F%2Fexodus.desync.com%3A6969","seeders":1,"leechers":1,"uploader":"ThousandPeers","files":-1,"time":1408579790,"description":"Format                                   : AVI\nFormat/Info                              : Audio Video Interleave\nFile size                                : 699 MiB\nDuration                                 : 1h 47mn\nOverall bit rate                         : 913 Kbps\nWriting application                      : MEncoder Sherpya-SVN-r23404-4.2.0\nWriting library                          : MPlayer\n\nVideo\nID                                       : 0\nFormat                                   : MPEG-4 Visual\nFormat profile                           : Advanced Simple@L5\nFormat settings, BVOP                    : 2\nFormat settings, QPel                    : No\nFormat settings, GMC                     : No warppoints\nFormat settings, Matrix                  : Default (H.263)\nCodec ID                                 : XVID\nCodec ID/Hint                            : XviD\nDuration                                 : 1h 47mn\nBit rate                                 : 819 Kbps\nWidth                                    : 640 pixels\nHeight                                   : 480 pixels\nDisplay aspect ratio                     : 4:3\nFrame rate                               : 29.970 fps\nColor space                              : YUV\nChroma subsampling                       : 4:2:0\nBit depth                                : 8 bits\nScan type                                : Progressive\nCompression mode                         : Lossy\nBits/(Pixel*Frame)                       : 0.089\nStream size                              : 627 MiB (90%)\nWriting library                          : XviD 1.1.2 (UTC 2006-11-01)\n\nAudio\nID                                       : 1\nFormat                                   : MPEG Audio\nFormat version                           : Version 1\nFormat profile                           : Layer 3\nCodec ID                                 : 55\nCodec ID/Hint                            : MP3\nDuration                                 : 1h 47mn\nBit rate mode                            : Constant\nBit rate                                 : 80.0 Kbps\nChannel(s)                               : 2 channels\nSampling rate                            : 48.0 KHz\nCompression mode                         : Lossy\nDelay relative to video                  : 33ms\nStream size                              : 61.3 MiB (9%)","torrent":{"xt":"urn:btih:bbb2700db5f1ff4917b15c0ab1ccdf11aa3b17e8","amp;dn":"Tora+Tora+Gold+Vol.80+%7E+Yuri+Amami+%28Uncensored%29+DVDRip","amp;tr":["udp%3A%2F%2Ftracker.openbittorrent.com%3A80","udp%3A%2F%2Fopen.demonii.com%3A1337","udp%3A%2F%2Ftracker.coppersurfer.tk%3A6969","udp%3A%2F%2Fexodus.desync.com%3A6969"],"infoHash":"bbb2700db5f1ff4917b15c0ab1ccdf11aa3b17e8","infoHashBuffer":{"type":"Buffer","data":[187,178,112,13,181,241,255,73,23,177,92,10,177,204,223,17,170,59,23,232]},"announce":[],"urlList":[]}}